<svg width="64" height="64" viewBox="0 0 64 64" fill="none" xmlns="http://www.w3.org/2000/svg">
<path d="M31.9997 47.4934H5.33301C4.23967 47.4934 3.33301 46.5867 3.33301 45.4934C3.33301 44.4001 4.23967 43.4934 5.33301 43.4934H31.9997C33.093 43.4934 33.9997 44.4001 33.9997 45.4934C33.9997 46.6134 33.093 47.4934 31.9997 47.4934Z" fill="#01773D"/>
<path d="M26.0794 60.6667H11.2793C5.4393 60.6667 3.35938 58.6133 3.35938 52.8V41.8667C3.35938 36.0533 5.4393 34 11.2793 34H26.0794C31.9194 34 33.9993 36.0533 33.9993 41.8667V52.8267C33.9993 58.6133 31.9194 60.6667 26.0794 60.6667ZM11.2526 38C7.62594 38 7.33268 38.2933 7.33268 41.8667V52.8267C7.33268 56.4 7.62594 56.6933 11.2526 56.6933H26.0527C29.6794 56.6933 29.9727 56.4 29.9727 52.8267V41.8667C29.9727 38.2933 29.6794 38 26.0527 38H11.2526Z" fill="#01773D"/>
<path d="M40.0009 60.6667C39.2809 60.6667 38.6142 60.2667 38.2675 59.6534C37.9208 59.0134 37.9208 58.2667 38.2942 57.6267L41.0941 52.9601C41.6541 52.0267 42.8809 51.7067 43.8409 52.2667C44.8009 52.8267 45.0943 54.0534 44.5343 55.0134L43.8142 56.2134C51.1742 54.4801 56.6942 47.8667 56.6942 39.9734C56.6942 38.8801 57.6009 37.9734 58.6942 37.9734C59.7876 37.9734 60.6942 38.8801 60.6942 39.9734C60.6676 51.3867 51.3876 60.6667 40.0009 60.6667Z" fill="#01773D"/>
<path d="M5.33301 25.9999C4.23967 25.9999 3.33301 25.0933 3.33301 23.9999C3.33301 12.6133 12.613 3.33325 23.9997 3.33325C24.7197 3.33325 25.3864 3.73325 25.7331 4.34659C26.0797 4.98659 26.0797 5.73325 25.7064 6.37325L22.9064 11.0399C22.3464 11.9732 21.1197 12.2933 20.1597 11.7333C19.1997 11.1733 18.9063 9.94658 19.4663 8.98658L20.1864 7.78658C12.8264 9.51991 7.30631 16.1332 7.30631 24.0266C7.33298 25.0932 6.42634 25.9999 5.33301 25.9999Z" fill="#01773D"/>
<path d="M49.333 31.3333C41.6263 31.3333 35.333 25.0666 35.333 17.3333C35.333 9.59992 41.5997 3.33325 49.333 3.33325C57.0663 3.33325 63.333 9.59992 63.333 17.3333C63.333 25.0666 57.0397 31.3333 49.333 31.3333ZM49.333 7.33325C43.813 7.33325 39.333 11.8133 39.333 17.3333C39.333 22.8533 43.813 27.3333 49.333 27.3333C54.853 27.3333 59.333 22.8533 59.333 17.3333C59.333 11.8133 54.853 7.33325 49.333 7.33325Z" fill="#01773D"/>
</svg>
