<svg width="36" height="36" viewBox="0 0 36 36" fill="none" xmlns="http://www.w3.org/2000/svg">
<path d="M33 22.5C33 28.305 28.305 33 22.5 33L24.075 30.375" fill="white"/>
<path d="M33 22.5C33 28.305 28.305 33 22.5 33L24.075 30.375" stroke="#01773D" stroke-width="1.5" stroke-linecap="round" stroke-linejoin="round"/>
<path d="M3 13.5C3 7.695 7.695 3 13.5 3L11.925 5.625" fill="white"/>
<path d="M3 13.5C3 7.695 7.695 3 13.5 3L11.925 5.625" stroke="#01773D" stroke-width="1.5" stroke-linecap="round" stroke-linejoin="round"/>
<path d="M33 6.3V6.465C33 6.885 32.67 7.215 32.25 7.215H18.75C18.33 7.215 18 6.885 18 6.465V6.3C18 3.66 18.66 3 21.33 3H29.67C32.34 3 33 3.66 33 6.3Z" fill="#01773D"/>
<path d="M18.75 8.71484C18.33 8.71484 18 9.04484 18 9.46484V10.9648V12.4498C18 15.0898 18.66 15.7498 21.33 15.7498H29.67C32.34 15.7498 33 15.0898 33 12.4498V10.9648V9.46484C33 9.04484 32.67 8.71484 32.25 8.71484H18.75Z" fill="#01773D"/>
<path d="M18 23.55V23.715C18 24.135 17.67 24.465 17.25 24.465H3.75C3.33 24.465 3 24.135 3 23.715V23.55C3 20.91 3.66 20.25 6.33 20.25H14.67C17.34 20.25 18 20.91 18 23.55Z" fill="#01773D"/>
<path d="M3.75 25.9648C3.33 25.9648 3 26.2948 3 26.7148V28.2148V29.6998C3 32.3398 3.66 32.9998 6.33 32.9998H14.67C17.34 32.9998 18 32.3398 18 29.6998V28.2148V26.7148C18 26.2948 17.67 25.9648 17.25 25.9648H3.75Z" fill="#01773D"/>
</svg>
