<svg width="16" height="16" viewBox="0 0 16 16" fill="none" xmlns="http://www.w3.org/2000/svg">
<g id="download 1">
<path id="Vector" opacity="0.4" d="M11.0716 6H4.92761C2.87961 6 1.59961 7.33333 1.59961 9.46667V11.1933C1.59961 13.3333 2.87961 14.6667 4.92761 14.6667H11.0652C13.1132 14.6667 14.3932 13.3333 14.3932 11.2V9.46667C14.3996 7.33333 13.1196 6 11.0716 6Z" fill="url(#paint0_linear_1049_45875)"/>
<path id="Vector_2" d="M10.4835 8.28671L8.3395 10.52C8.1539 10.7134 7.8467 10.7134 7.6611 10.52L5.51713 8.28671C5.33153 8.09337 5.33153 7.77337 5.51713 7.58004C5.70273 7.38671 6.00993 7.38671 6.19553 7.58004L7.5203 8.96004V1.83337C7.5203 1.56004 7.7379 1.33337 8.0003 1.33337C8.2627 1.33337 8.4803 1.56004 8.4803 1.83337V8.96004L9.8051 7.58004C9.9011 7.48004 10.0227 7.43337 10.1443 7.43337C10.2659 7.43337 10.3875 7.48004 10.4835 7.58004C10.6755 7.77337 10.6755 8.08671 10.4835 8.28671Z" fill="url(#paint1_linear_1049_45875)"/>
</g>
<defs>
<linearGradient id="paint0_linear_1049_45875" x1="7.99641" y1="6" x2="7.99641" y2="14.6667" gradientUnits="userSpaceOnUse">
<stop stop-color="#01773D"/>
<stop offset="1" stop-color="#00984E"/>
</linearGradient>
<linearGradient id="paint1_linear_1049_45875" x1="8.00274" y1="1.33337" x2="8.00274" y2="10.665" gradientUnits="userSpaceOnUse">
<stop stop-color="#01773D"/>
<stop offset="1" stop-color="#00984E"/>
</linearGradient>
</defs>
</svg>
