<svg width="20" height="20" viewBox="0 0 20 20" fill="none" xmlns="http://www.w3.org/2000/svg">
<g id="vuesax/outline/gallery">
<g id="gallery">
<path id="Vector" d="M12.4993 18.9577H7.49935C2.97435 18.9577 1.04102 17.0243 1.04102 12.4993V7.49935C1.04102 2.97435 2.97435 1.04102 7.49935 1.04102H12.4993C17.0243 1.04102 18.9577 2.97435 18.9577 7.49935V12.4993C18.9577 17.0243 17.0243 18.9577 12.4993 18.9577ZM7.49935 2.29102C3.65768 2.29102 2.29102 3.65768 2.29102 7.49935V12.4993C2.29102 16.341 3.65768 17.7077 7.49935 17.7077H12.4993C16.341 17.7077 17.7077 16.341 17.7077 12.4993V7.49935C17.7077 3.65768 16.341 2.29102 12.4993 2.29102H7.49935Z" fill="#01773D"/>
<path id="Vector_2" d="M7.50065 8.95833C6.23398 8.95833 5.20898 7.93333 5.20898 6.66667C5.20898 5.4 6.23398 4.375 7.50065 4.375C8.76732 4.375 9.79232 5.4 9.79232 6.66667C9.79232 7.93333 8.76732 8.95833 7.50065 8.95833ZM7.50065 5.625C6.92565 5.625 6.45898 6.09167 6.45898 6.66667C6.45898 7.24167 6.92565 7.70833 7.50065 7.70833C8.07565 7.70833 8.54232 7.24167 8.54232 6.66667C8.54232 6.09167 8.07565 5.625 7.50065 5.625Z" fill="#01773D"/>
<path id="Vector_3" d="M2.22595 16.4168C2.02595 16.4168 1.82595 16.3168 1.70928 16.1418C1.51762 15.8585 1.59262 15.4668 1.88428 15.2751L5.99262 12.5168C6.89262 11.9085 8.13428 11.9835 8.95095 12.6751L9.22595 12.9168C9.64262 13.2751 10.3509 13.2751 10.7593 12.9168L14.2259 9.9418C15.1093 9.18346 16.5009 9.18346 17.3926 9.9418L18.7509 11.1085C19.0093 11.3335 19.0426 11.7251 18.8176 11.9918C18.5926 12.2501 18.201 12.2835 17.9343 12.0585L16.5759 10.8918C16.1593 10.5335 15.4509 10.5335 15.0343 10.8918L11.5676 13.8668C10.6843 14.6251 9.29262 14.6251 8.40095 13.8668L8.12595 13.6251C7.74262 13.3001 7.10928 13.2668 6.68428 13.5585L2.57595 16.3168C2.46762 16.3835 2.34262 16.4168 2.22595 16.4168Z" fill="#01773D"/>
</g>
</g>
</svg>
