<svg width="36" height="36" viewBox="0 0 36 36" fill="none" xmlns="http://www.w3.org/2000/svg">
<path d="M19.575 24.3749H16.755C14.76 24.3749 13.125 22.6949 13.125 20.6249C13.125 20.0099 13.635 19.4999 14.25 19.4999C14.865 19.4999 15.375 20.0099 15.375 20.6249C15.375 21.4499 15.99 22.1249 16.755 22.1249H19.575C20.16 22.1249 20.625 21.5999 20.625 20.9549C20.625 20.1449 20.4 20.0248 19.89 19.8448L15.375 18.2698C14.415 17.9398 13.125 17.2349 13.125 15.0299C13.125 13.1549 14.61 11.6099 16.425 11.6099H19.245C21.24 11.6099 22.875 13.2899 22.875 15.3599C22.875 15.9749 22.365 16.4849 21.75 16.4849C21.135 16.4849 20.625 15.9749 20.625 15.3599C20.625 14.5349 20.01 13.8599 19.245 13.8599H16.425C15.84 13.8599 15.375 14.3849 15.375 15.0299C15.375 15.8399 15.6 15.9598 16.11 16.1398L20.625 17.7149C21.585 18.0449 22.875 18.7499 22.875 20.9549C22.875 22.8449 21.39 24.3749 19.575 24.3749Z" fill="#01773D"/>
<path d="M18 25.875C17.385 25.875 16.875 25.365 16.875 24.75V11.25C16.875 10.635 17.385 10.125 18 10.125C18.615 10.125 19.125 10.635 19.125 11.25V24.75C19.125 25.365 18.615 25.875 18 25.875Z" fill="#01773D"/>
<path d="M18 34.125C9.105 34.125 1.875 26.895 1.875 18C1.875 9.105 9.105 1.875 18 1.875C18.615 1.875 19.125 2.385 19.125 3C19.125 3.615 18.615 4.125 18 4.125C10.35 4.125 4.125 10.35 4.125 18C4.125 25.65 10.35 31.875 18 31.875C25.65 31.875 31.875 25.65 31.875 18C31.875 17.385 32.385 16.875 33 16.875C33.615 16.875 34.125 17.385 34.125 18C34.125 26.895 26.895 34.125 18 34.125Z" fill="#01773D"/>
<path d="M31.5 11.625H25.5C24.885 11.625 24.375 11.115 24.375 10.5V4.5C24.375 3.885 24.885 3.375 25.5 3.375C26.115 3.375 26.625 3.885 26.625 4.5V9.375H31.5C32.115 9.375 32.625 9.885 32.625 10.5C32.625 11.115 32.115 11.625 31.5 11.625Z" fill="#01773D"/>
<path d="M25.5002 11.6252C25.2152 11.6252 24.9302 11.5202 24.7052 11.2952C24.2702 10.8602 24.2702 10.1402 24.7052 9.70516L32.2052 2.20516C32.6402 1.77016 33.3602 1.77016 33.7952 2.20516C34.2302 2.64016 34.2302 3.36015 33.7952 3.79515L26.2952 11.2952C26.0702 11.5202 25.7852 11.6252 25.5002 11.6252Z" fill="#01773D"/>
</svg>
