<svg width="64" height="64" viewBox="0 0 64 64" fill="none" xmlns="http://www.w3.org/2000/svg">
<path d="M42.667 60.6666H21.3337C13.2803 60.6666 8.66699 56.0533 8.66699 47.9999V21.9999C8.66699 13.5999 12.9337 9.33325 21.3337 9.33325C22.427 9.33325 23.3337 10.2399 23.3337 11.3333C23.3337 12.3999 23.7603 13.4132 24.507 14.1599C25.2537 14.9066 26.267 15.3333 27.3337 15.3333H36.667C38.8803 15.3333 40.667 13.5466 40.667 11.3333C40.667 10.2399 41.5737 9.33325 42.667 9.33325C51.067 9.33325 55.3337 13.5999 55.3337 21.9999V47.9999C55.3337 56.0533 50.7203 60.6666 42.667 60.6666ZM19.6003 13.3866C15.3869 13.7333 12.667 15.6266 12.667 21.9999V47.9999C12.667 53.9199 15.4137 56.6666 21.3337 56.6666H42.667C48.587 56.6666 51.3337 53.9199 51.3337 47.9999V21.9999C51.3337 15.6266 48.6137 13.7599 44.4004 13.3866C43.4937 16.7999 40.3737 19.3333 36.667 19.3333H27.3337C25.2003 19.3333 23.2003 18.5066 21.6803 16.9866C20.667 15.9732 19.9736 14.7466 19.6003 13.3866Z" fill="#01773D"/>
<path d="M36.6663 19.3333H27.333C25.1997 19.3333 23.1997 18.5066 21.6797 16.9866C20.1597 15.4666 19.333 13.4666 19.333 11.3333C19.333 6.93325 22.933 3.33325 27.333 3.33325H36.6663C38.7997 3.33325 40.7997 4.15993 42.3197 5.67993C43.8397 7.19993 44.6663 9.19992 44.6663 11.3333C44.6663 15.7333 41.0663 19.3333 36.6663 19.3333ZM27.333 7.33325C25.1197 7.33325 23.333 9.11992 23.333 11.3333C23.333 12.3999 23.7597 13.4132 24.5063 14.1599C25.253 14.9066 26.2663 15.3333 27.333 15.3333H36.6663C38.8797 15.3333 40.6663 13.5466 40.6663 11.3333C40.6663 10.2666 40.2397 9.25326 39.493 8.50659C38.7463 7.75993 37.733 7.33325 36.6663 7.33325H27.333Z" fill="#01773D"/>
<path d="M31.9997 36.6667H21.333C20.2397 36.6667 19.333 35.7601 19.333 34.6667C19.333 33.5734 20.2397 32.6667 21.333 32.6667H31.9997C33.093 32.6667 33.9997 33.5734 33.9997 34.6667C33.9997 35.7601 33.093 36.6667 31.9997 36.6667Z" fill="#01773D"/>
<path d="M42.6663 47.3333H21.333C20.2397 47.3333 19.333 46.4266 19.333 45.3333C19.333 44.2399 20.2397 43.3333 21.333 43.3333H42.6663C43.7597 43.3333 44.6663 44.2399 44.6663 45.3333C44.6663 46.4266 43.7597 47.3333 42.6663 47.3333Z" fill="#01773D"/>
</svg>
