<svg width="36" height="36" viewBox="0 0 36 36" fill="none" xmlns="http://www.w3.org/2000/svg">
<path d="M24 6.375C24 8.235 22.485 9.75 20.625 9.75H15.375C14.445 9.75 13.605 9.375 12.99 8.76C12.375 8.145 12 7.305 12 6.375C12 4.515 13.515 3 15.375 3H20.625C21.555 3 22.395 3.375 23.01 3.99C23.625 4.605 24 5.445 24 6.375Z" fill="#01773D"/>
<path d="M28.245 7.54507C27.9 7.26007 27.51 7.03507 27.09 6.87007C26.655 6.70507 26.22 7.05007 26.13 7.50007C25.62 10.0651 23.355 12.0001 20.625 12.0001H15.375C13.875 12.0001 12.465 11.4151 11.4 10.3501C10.62 9.57007 10.08 8.58007 9.87 7.51507C9.78 7.06507 9.33 6.70507 8.895 6.88507C7.155 7.59007 6 9.18007 6 12.3751V27.0001C6 31.5001 8.685 33.0001 12 33.0001H24C27.315 33.0001 30 31.5001 30 27.0001V12.3751C30 9.93007 29.325 8.43007 28.245 7.54507ZM12 18.3751H18C18.615 18.3751 19.125 18.8851 19.125 19.5001C19.125 20.1151 18.615 20.6251 18 20.6251H12C11.385 20.6251 10.875 20.1151 10.875 19.5001C10.875 18.8851 11.385 18.3751 12 18.3751ZM24 26.6251H12C11.385 26.6251 10.875 26.1151 10.875 25.5001C10.875 24.8851 11.385 24.3751 12 24.3751H24C24.615 24.3751 25.125 24.8851 25.125 25.5001C25.125 26.1151 24.615 26.6251 24 26.6251Z" fill="#01773D"/>
</svg>
