<svg width="90" height="100" viewBox="0 0 90 100" fill="none" xmlns="http://www.w3.org/2000/svg">
<g id="Group 82">
<g id="Clip path group">
<mask id="mask0_1085_26120" style="mask-type:luminance" maskUnits="userSpaceOnUse" x="48" y="76" width="12" height="24">
<g id="ddcbe370e5">
<path id="Vector" d="M48.3281 76.6406H60V100H48.3281V76.6406Z" fill="white"/>
</g>
</mask>
<g mask="url(#mask0_1085_26120)">
<g id="Group">
<path id="Vector_2" d="M58.334 76.668H50.0006C49.0814 76.668 48.334 77.4154 48.334 78.3346V99.3034C48.334 99.6888 48.6465 100.001 49.0345 100.001H59.3027C59.6881 100.001 60.0006 99.6888 60.0006 99.3034V78.3346C60.0006 77.4154 59.2558 76.668 58.334 76.668Z" fill="#01773D"/>
</g>
</g>
</g>
<g id="Clip path group_2">
<mask id="mask1_1085_26120" style="mask-type:luminance" maskUnits="userSpaceOnUse" x="0" y="0" width="61" height="100">
<g id="7db2fb44e0">
<path id="Vector_3" d="M0 0H60.0468V99.9999H0V0Z" fill="white"/>
</g>
</mask>
<g mask="url(#mask1_1085_26120)">
<g id="Group_2">
<path id="Vector_4" d="M41.8723 50.0984C40.6302 52.0567 39.1145 53.1557 37.3567 54.4317C36.3489 55.1609 35.3073 55.9135 34.1432 56.9499C32.5703 58.3432 31.6666 60.3718 31.6666 62.515V65.8327C31.6666 66.7546 30.9218 67.4994 30 67.4994C29.0807 67.4994 28.3333 66.7546 28.3333 65.8327V62.515C28.3333 59.4213 29.6458 56.4838 31.9297 54.4551C33.2187 53.3119 34.3776 52.4708 35.3984 51.7312C37.0026 50.5697 38.1588 49.7312 39.0599 48.3119C41.3489 44.7052 41.1067 39.8796 38.4687 36.5776C36.1328 33.6531 32.5026 32.1557 28.7578 32.5698C23.789 33.1192 19.7838 37.1244 19.237 42.0958C19.0052 44.1895 19.3672 46.2781 20.2838 48.1296C20.6927 48.9552 20.3541 49.9552 19.5286 50.364C18.7031 50.7729 17.7057 50.4343 17.2969 49.6088C16.0963 47.1843 15.6224 44.4578 15.9219 41.7312C16.6406 35.2234 21.8828 29.9786 28.3906 29.2573C33.2786 28.7156 38.0208 30.6765 41.0729 34.4968C44.6406 38.9604 44.9635 45.2312 41.8723 50.0984ZM30 77.4994C28.6224 77.4994 27.5 76.3796 27.5 74.9994C27.5 73.6218 28.6224 72.4994 30 72.4994C31.3802 72.4994 32.5 73.6218 32.5 74.9994C32.5 76.3796 31.3802 77.4994 30 77.4994ZM59.302 19.1661H19.1666C17.3255 19.1661 15.8333 17.6739 15.8333 15.8328V8.14791C15.8333 4.02812 12.7812 0.423961 8.67968 0.0359411C3.97395 -0.406767 0 3.29896 0 7.91614V99.3014C0 99.6869 0.3125 99.9994 0.70052 99.9994H44.302C44.6875 99.9994 45 99.6869 45 99.3014V78.3327C45 75.5723 47.2395 73.3327 49.9999 73.3327H58.3333C58.6249 73.3327 58.9114 73.3614 59.19 73.4109C59.6171 73.4864 59.9999 73.1348 59.9999 72.7025V62.4994C59.9999 62.3067 60.013 62.1166 60.0364 61.9265C60.013 61.8171 59.9999 61.7025 59.9999 61.5879V19.8666C59.9999 19.4812 59.6874 19.1661 59.302 19.1661Z" fill="#01773D"/>
</g>
</g>
</g>
<g id="Clip path group_3">
<mask id="mask2_1085_26120" style="mask-type:luminance" maskUnits="userSpaceOnUse" x="16" y="0" width="58" height="17">
<g id="00af6f48bc">
<path id="Vector_5" d="M16.668 0H73.3346V16.414H16.668V0Z" fill="white"/>
</g>
</mask>
<g mask="url(#mask2_1085_26120)">
<g id="Group_3">
<path id="Vector_6" d="M19.8674 15.8359H72.6356C73.021 15.8359 73.3335 15.5208 73.3335 15.1354V7.91666C73.3335 3.54427 69.7892 0 65.4168 0H17.4325C16.8648 0 16.521 0.653645 16.8674 1.10677C18.3101 3 19.1669 5.35937 19.1669 7.91666V15.1354C19.1669 15.5208 19.4794 15.8359 19.8674 15.8359Z" fill="#FF9100"/>
</g>
</g>
</g>
<g id="Clip path group_4">
<mask id="mask3_1085_26120" style="mask-type:luminance" maskUnits="userSpaceOnUse" x="78" y="67" width="12" height="33">
<g id="019edcb303">
<path id="Vector_7" d="M78.3047 67.4805H90V100.001H78.3047V67.4805Z" fill="white"/>
</g>
</mask>
<g mask="url(#mask3_1085_26120)">
<g id="Group_4">
<path id="Vector_8" d="M88.332 67.5H79.9987C79.0794 67.5 78.332 68.2474 78.332 69.1667V99.302C78.332 99.6875 78.6445 100 79.0326 100H89.3008C89.6862 100 89.9987 99.6875 89.9987 99.302V69.1667C89.9987 68.2474 89.2539 67.5 88.332 67.5Z" fill="#01773D"/>
</g>
</g>
</g>
<g id="Clip path group_5">
<mask id="mask4_1085_26120" style="mask-type:luminance" maskUnits="userSpaceOnUse" x="63" y="60" width="13" height="40">
<g id="a8b056240e">
<path id="Vector_9" d="M63.334 60.8164H75.0058V99.9987H63.334V60.8164Z" fill="white"/>
</g>
</mask>
<g mask="url(#mask4_1085_26120)">
<g id="Group_5">
<path id="Vector_10" d="M73.334 60.832H65.0006C64.0814 60.832 63.334 61.5794 63.334 62.4987V99.3007C63.334 99.6862 63.6465 99.9987 64.0345 99.9987H74.3027C74.6881 99.9987 75.0006 99.6862 75.0006 99.3007V62.4987C75.0006 61.5794 74.2558 60.832 73.334 60.832Z" fill="#FF9100"/>
</g>
</g>
</g>
</g>
</svg>
