<svg width="180" height="200" viewBox="0 0 180 200" fill="none" xmlns="http://www.w3.org/2000/svg">
<mask id="mask0_2556_16420" style="mask-type:luminance" maskUnits="userSpaceOnUse" x="96" y="153" width="25" height="47">
<path d="M96.6572 153.281H120.001V200H96.6572V153.281Z" fill="white"/>
</mask>
<g mask="url(#mask0_2556_16420)">
<path d="M116.671 153.334H100.004C98.1657 153.334 96.6709 154.828 96.6709 156.667V198.604C96.6709 199.375 97.2959 200 98.0719 200H118.608C119.379 200 120.004 199.375 120.004 198.604V156.667C120.004 154.828 118.515 153.334 116.671 153.334Z" fill="#01773D"/>
</g>
<mask id="mask1_2556_16420" style="mask-type:luminance" maskUnits="userSpaceOnUse" x="0" y="0" width="121" height="200">
<path d="M0.000930786 0.00012207H120.095V200H0.000930786V0.00012207Z" fill="white"/>
</mask>
<g mask="url(#mask1_2556_16420)">
<path d="M83.7457 100.198C81.2613 104.115 78.23 106.313 74.7144 108.865C72.6988 110.323 70.6155 111.829 68.2873 113.901C65.1415 116.688 63.3342 120.745 63.3342 125.032V131.667C63.3342 133.511 61.8446 135 60.0009 135C58.1623 135 56.6675 133.511 56.6675 131.667V125.032C56.6675 118.844 59.2925 112.969 63.8603 108.912C66.4384 106.625 68.7561 104.943 70.7977 103.464C74.0061 101.141 76.3186 99.464 78.1207 96.6255C82.6988 89.4119 82.2144 79.7609 76.9384 73.1567C72.2665 67.3078 65.0061 64.313 57.5165 65.1411C47.579 66.2401 39.5686 74.2505 38.4749 84.1932C38.0113 88.3807 38.7353 92.5578 40.5686 96.2609C41.3863 97.9119 40.7092 99.9119 39.0582 100.73C37.4072 101.547 35.4124 100.87 34.5947 99.2192C32.1936 94.3702 31.2457 88.9171 31.8447 83.464C33.2822 70.4484 43.7665 59.9588 56.7821 58.5161C66.5582 57.4328 76.0425 61.3547 82.1467 68.9953C89.2821 77.9224 89.9279 90.464 83.7457 100.198ZM60.0009 155C57.2457 155 55.0009 152.761 55.0009 150C55.0009 147.245 57.2457 145 60.0009 145C62.7613 145 65.0009 147.245 65.0009 150C65.0009 152.761 62.7613 155 60.0009 155ZM118.605 38.3338H38.3342C34.6519 38.3338 31.6676 35.3495 31.6676 31.6672V16.2974C31.6676 8.05784 25.5634 0.84951 17.3603 0.0734692C7.94884 -0.811947 0.000930786 6.59951 0.000930786 15.8339V198.605C0.000930786 199.375 0.625931 200 1.40197 200H88.605C89.3759 200 90.0009 199.375 90.0009 198.605V156.667C90.0009 151.146 94.48 146.667 100.001 146.667H116.667C117.251 146.667 117.824 146.724 118.381 146.823C119.235 146.974 120.001 146.271 120.001 145.407V125C120.001 124.615 120.027 124.235 120.074 123.855C120.027 123.636 120.001 123.407 120.001 123.178V39.7349C120.001 38.9641 119.376 38.3338 118.605 38.3338Z" fill="#01773D"/>
</g>
<mask id="mask2_2556_16420" style="mask-type:luminance" maskUnits="userSpaceOnUse" x="33" y="0" width="114" height="33">
<path d="M33.3369 0.00012207H146.67V32.8282H33.3369V0.00012207Z" fill="white"/>
</mask>
<g mask="url(#mask2_2556_16420)">
<path d="M39.7347 31.672H145.271C146.042 31.672 146.667 31.0418 146.667 30.2709V15.8334C146.667 7.08866 139.578 0.00012207 130.834 0.00012207H34.865C33.7295 0.00012207 33.042 1.30741 33.7348 2.21366C36.6202 6.00012 38.3337 10.7189 38.3337 15.8334V30.2709C38.3337 31.0418 38.9587 31.672 39.7347 31.672Z" fill="#FF9100"/>
</g>
<mask id="mask3_2556_16420" style="mask-type:luminance" maskUnits="userSpaceOnUse" x="156" y="134" width="24" height="66">
<path d="M156.608 134.958H179.999V200H156.608V134.958Z" fill="white"/>
</mask>
<g mask="url(#mask3_2556_16420)">
<path d="M176.662 135H159.995C158.157 135 156.662 136.495 156.662 138.333V198.604C156.662 199.375 157.287 200 158.063 200H178.6C179.37 200 179.995 199.375 179.995 198.604V138.333C179.995 136.495 178.506 135 176.662 135Z" fill="#01773D"/>
</g>
<mask id="mask4_2556_16420" style="mask-type:luminance" maskUnits="userSpaceOnUse" x="126" y="121" width="25" height="79">
<path d="M126.669 121.635H150.013V200H126.669V121.635Z" fill="white"/>
</mask>
<g mask="url(#mask4_2556_16420)">
<path d="M146.669 121.667H130.002C128.164 121.667 126.669 123.162 126.669 125V198.605C126.669 199.375 127.294 200 128.07 200H148.606C149.377 200 150.002 199.375 150.002 198.605V125C150.002 123.162 148.513 121.667 146.669 121.667Z" fill="#FF9100"/>
</g>
</svg>
