<svg width="64" height="64" viewBox="0 0 64 64" fill="none" xmlns="http://www.w3.org/2000/svg">
<path d="M45.333 58H18.6663C6.90634 58 3.33301 54.4267 3.33301 42.6667V21.3333C3.33301 9.57333 6.90634 6 18.6663 6H45.333C57.093 6 60.6663 9.57333 60.6663 21.3333V42.6667C60.6663 54.4267 57.093 58 45.333 58ZM18.6663 10C9.11967 10 7.33301 11.8133 7.33301 21.3333V42.6667C7.33301 52.1867 9.11967 54 18.6663 54H45.333C54.8797 54 56.6663 52.1867 56.6663 42.6667V21.3333C56.6663 11.8133 54.8797 10 45.333 10H18.6663Z" fill="#01773D"/>
<path d="M50.6663 23.3333H37.333C36.2397 23.3333 35.333 22.4266 35.333 21.3333C35.333 20.2399 36.2397 19.3333 37.333 19.3333H50.6663C51.7597 19.3333 52.6663 20.2399 52.6663 21.3333C52.6663 22.4266 51.7597 23.3333 50.6663 23.3333Z" fill="#01773D"/>
<path d="M50.6667 34H40C38.9067 34 38 33.0933 38 32C38 30.9067 38.9067 30 40 30H50.6667C51.76 30 52.6667 30.9067 52.6667 32C52.6667 33.0933 51.76 34 50.6667 34Z" fill="#01773D"/>
<path d="M50.6663 44.6667H45.333C44.2397 44.6667 43.333 43.7601 43.333 42.6667C43.333 41.5734 44.2397 40.6667 45.333 40.6667H50.6663C51.7597 40.6667 52.6663 41.5734 52.6663 42.6667C52.6663 43.7601 51.7597 44.6667 50.6663 44.6667Z" fill="#01773D"/>
<path d="M22.6665 32.1067C18.9065 32.1067 15.8398 29.04 15.8398 25.28C15.8398 21.52 18.9065 18.4534 22.6665 18.4534C26.4265 18.4534 29.4932 21.52 29.4932 25.28C29.4932 29.04 26.4265 32.1067 22.6665 32.1067ZM22.6665 22.4534C21.1198 22.4534 19.8398 23.7334 19.8398 25.28C19.8398 26.8267 21.1198 28.1067 22.6665 28.1067C24.2132 28.1067 25.4932 26.8267 25.4932 25.28C25.4932 23.7334 24.2132 22.4534 22.6665 22.4534Z" fill="#01773D"/>
<path d="M31.9997 45.5467C30.9864 45.5467 30.1064 44.7734 29.9997 43.7334C29.7064 40.8534 27.3864 38.5334 24.4797 38.2667C23.2531 38.16 22.0264 38.16 20.7997 38.2667C17.8931 38.5334 15.5731 40.8267 15.2797 43.7334C15.1731 44.8267 14.1864 45.6534 13.0931 45.52C11.9997 45.4134 11.1997 44.4267 11.3064 43.3334C11.7864 38.5334 15.5997 34.72 20.4264 34.2934C21.8931 34.16 23.3864 34.16 24.8531 34.2934C29.6531 34.7467 33.4931 38.56 33.9731 43.3334C34.0797 44.4267 33.2797 45.4134 32.1864 45.52C32.1331 45.5467 32.0531 45.5467 31.9997 45.5467Z" fill="#01773D"/>
</svg>
