<svg width="17" height="16" viewBox="0 0 17 16" fill="none" xmlns="http://www.w3.org/2000/svg">
<path d="M15.7533 12.6015C15.7533 12.8639 15.695 13.1335 15.5711 13.3958C15.4472 13.6581 15.2869 13.9059 15.0756 14.1391C14.7185 14.5326 14.325 14.8168 13.8805 14.9989C13.4433 15.1811 12.9696 15.2758 12.4595 15.2758C11.7163 15.2758 10.922 15.101 10.084 14.7439C9.24599 14.3868 8.40799 13.9059 7.57727 13.3011C6.73927 12.689 5.94499 12.0113 5.18714 11.2607C4.43659 10.5029 3.7589 9.7086 3.15408 8.87788C2.55655 8.04717 2.07561 7.21646 1.72583 6.39303C1.37606 5.56231 1.20117 4.76803 1.20117 4.01019C1.20117 3.51467 1.28862 3.04102 1.4635 2.6038C1.63839 2.1593 1.91529 1.75123 2.3015 1.38688C2.76787 0.9278 3.27796 0.701904 3.81719 0.701904C4.02123 0.701904 4.22526 0.745626 4.40744 0.83307C4.5969 0.920513 4.7645 1.05168 4.89567 1.24114L6.58624 3.62398C6.71741 3.80615 6.81214 3.97375 6.87772 4.13407C6.9433 4.28709 6.97974 4.44012 6.97974 4.57857C6.97974 4.75346 6.92873 4.92835 6.82671 5.09595C6.73198 5.26355 6.59353 5.43843 6.41864 5.61332L5.86483 6.18899C5.78468 6.26915 5.74824 6.36388 5.74824 6.48047C5.74824 6.53877 5.75553 6.58978 5.7701 6.64807C5.79196 6.70637 5.81382 6.75009 5.8284 6.79381C5.95956 7.03428 6.18546 7.34762 6.50609 7.72654C6.834 8.10547 7.18377 8.49167 7.5627 8.87788C7.95619 9.26409 8.33512 9.62115 8.72132 9.94907C9.10025 10.2697 9.41359 10.4883 9.66134 10.6195C9.69778 10.634 9.7415 10.6559 9.79251 10.6778C9.85081 10.6996 9.9091 10.7069 9.97468 10.7069C10.0986 10.7069 10.1933 10.6632 10.2734 10.583L10.8273 10.0365C11.0094 9.85434 11.1843 9.71589 11.3519 9.62844C11.5195 9.52642 11.6871 9.47542 11.8693 9.47542C12.0077 9.47542 12.1535 9.50456 12.3138 9.57015C12.4741 9.63573 12.6417 9.73046 12.8239 9.85434L15.2359 11.5668C15.4253 11.6979 15.5565 11.851 15.6367 12.0331C15.7095 12.2153 15.7533 12.3975 15.7533 12.6015Z" stroke="#CCE4D8" stroke-width="1.2" stroke-miterlimit="10"/>
<path d="M13.2262 5.80288C13.2262 5.36566 12.8837 4.69526 12.3736 4.14874C11.9073 3.64594 11.2879 3.25244 10.6758 3.25244" stroke="#CCE4D8" stroke-width="1.2" stroke-linecap="round" stroke-linejoin="round"/>
<path d="M15.7767 5.80278C15.7767 2.98273 13.4958 0.701904 10.6758 0.701904" stroke="#CCE4D8" stroke-width="1.2" stroke-linecap="round" stroke-linejoin="round"/>
</svg>
