<svg width="16" height="16" viewBox="0 0 16 16" fill="none" xmlns="http://www.w3.org/2000/svg">
<g id="vuesax/outline/user-add">
<g id="user-add">
<path id="Vector" d="M7.99935 8.50016C5.88602 8.50016 4.16602 6.78016 4.16602 4.66683C4.16602 2.5535 5.88602 0.833496 7.99935 0.833496C10.1127 0.833496 11.8327 2.5535 11.8327 4.66683C11.8327 6.78016 10.1127 8.50016 7.99935 8.50016ZM7.99935 1.8335C6.43935 1.8335 5.16602 3.10683 5.16602 4.66683C5.16602 6.22683 6.43935 7.50016 7.99935 7.50016C9.55935 7.50016 10.8327 6.22683 10.8327 4.66683C10.8327 3.10683 9.55935 1.8335 7.99935 1.8335Z" fill="white"/>
<path id="Vector_2" d="M2.27344 15.1667C2.0001 15.1667 1.77344 14.94 1.77344 14.6667C1.77344 11.82 4.56677 9.5 8.0001 9.5C8.67344 9.5 9.33343 9.58668 9.97343 9.76668C10.2401 9.84002 10.3934 10.1133 10.3201 10.38C10.2468 10.6467 9.97343 10.8 9.70677 10.7267C9.1601 10.5734 8.58677 10.5 8.0001 10.5C5.1201 10.5 2.77344 12.3667 2.77344 14.6667C2.77344 14.94 2.54677 15.1667 2.27344 15.1667Z" fill="white"/>
<path id="Vector_3" d="M12.0007 15.1668C11.214 15.1668 10.4673 14.8735 9.88731 14.3468C9.65398 14.1468 9.44731 13.9002 9.28731 13.6268C8.99398 13.1468 8.83398 12.5802 8.83398 12.0002C8.83398 11.1668 9.15398 10.3868 9.72732 9.7935C10.3273 9.1735 11.134 8.8335 12.0007 8.8335C12.9073 8.8335 13.7673 9.22017 14.354 9.88684C14.874 10.4668 15.1673 11.2135 15.1673 12.0002C15.1673 12.2535 15.134 12.5068 15.0673 12.7468C15.0007 13.0468 14.874 13.3602 14.7006 13.6335C14.1473 14.5802 13.1073 15.1668 12.0007 15.1668ZM12.0007 9.8335C11.4073 9.8335 10.8607 10.0668 10.4473 10.4868C10.054 10.8935 9.83398 11.4268 9.83398 12.0002C9.83398 12.3935 9.94065 12.7802 10.1473 13.1135C10.254 13.3002 10.394 13.4668 10.554 13.6068C10.954 13.9735 11.4673 14.1735 12.0007 14.1735C12.754 14.1735 13.4673 13.7735 13.854 13.1268C13.9673 12.9402 14.054 12.7268 14.1006 12.5202C14.1473 12.3468 14.1673 12.1802 14.1673 12.0068C14.1673 11.4735 13.9673 10.9602 13.6073 10.5602C13.2073 10.0935 12.6207 9.8335 12.0007 9.8335Z" fill="white"/>
<path id="Vector_4" d="M12.9992 12.4868H11.0059C10.7325 12.4868 10.5059 12.2601 10.5059 11.9868C10.5059 11.7135 10.7325 11.4868 11.0059 11.4868H12.9992C13.2725 11.4868 13.4992 11.7135 13.4992 11.9868C13.4992 12.2601 13.2725 12.4868 12.9992 12.4868Z" fill="white"/>
<path id="Vector_5" d="M12 13.5065C11.7267 13.5065 11.5 13.2798 11.5 13.0065V11.0132C11.5 10.7399 11.7267 10.5132 12 10.5132C12.2733 10.5132 12.5 10.7399 12.5 11.0132V13.0065C12.5 13.2865 12.2733 13.5065 12 13.5065Z" fill="white"/>
</g>
</g>
</svg>
