<svg width="20" height="20" viewBox="0 0 20 20" fill="none" xmlns="http://www.w3.org/2000/svg">
<path d="M13.334 18.9584H6.66732C4.15065 18.9584 2.70898 17.5167 2.70898 15.0001V6.87508C2.70898 4.25008 4.04232 2.91675 6.66732 2.91675C7.00898 2.91675 7.29232 3.20008 7.29232 3.54175C7.29232 3.87508 7.42565 4.19175 7.65899 4.42508C7.89232 4.65841 8.20898 4.79175 8.54232 4.79175H11.459C12.1507 4.79175 12.709 4.23341 12.709 3.54175C12.709 3.20008 12.9923 2.91675 13.334 2.91675C15.959 2.91675 17.2923 4.25008 17.2923 6.87508V15.0001C17.2923 17.5167 15.8507 18.9584 13.334 18.9584ZM6.12563 4.18342C4.80896 4.29175 3.95898 4.88341 3.95898 6.87508V15.0001C3.95898 16.8501 4.81732 17.7084 6.66732 17.7084H13.334C15.184 17.7084 16.0423 16.8501 16.0423 15.0001V6.87508C16.0423 4.88341 15.1923 4.30009 13.8757 4.18342C13.5923 5.25009 12.6173 6.04175 11.459 6.04175H8.54232C7.87565 6.04175 7.25065 5.78341 6.77566 5.30841C6.45899 4.99174 6.2423 4.60842 6.12563 4.18342Z" fill="#1C1C1E"/>
<path d="M11.4577 6.04175H8.54102C7.87435 6.04175 7.24935 5.78341 6.77435 5.30841C6.29935 4.83341 6.04102 4.20841 6.04102 3.54175C6.04102 2.16675 7.16602 1.04175 8.54102 1.04175H11.4577C12.1243 1.04175 12.7493 1.30009 13.2243 1.77509C13.6993 2.25009 13.9577 2.87508 13.9577 3.54175C13.9577 4.91675 12.8327 6.04175 11.4577 6.04175ZM8.54102 2.29175C7.84935 2.29175 7.29102 2.85008 7.29102 3.54175C7.29102 3.87508 7.42435 4.19175 7.65768 4.42508C7.89102 4.65841 8.20768 4.79175 8.54102 4.79175H11.4577C12.1493 4.79175 12.7077 4.23341 12.7077 3.54175C12.7077 3.20841 12.5743 2.89175 12.341 2.65842C12.1077 2.42508 11.791 2.29175 11.4577 2.29175H8.54102Z" fill="#1C1C1E"/>
<path d="M9.99935 11.4583H6.66602C6.32435 11.4583 6.04102 11.1749 6.04102 10.8333C6.04102 10.4916 6.32435 10.2083 6.66602 10.2083H9.99935C10.341 10.2083 10.6243 10.4916 10.6243 10.8333C10.6243 11.1749 10.341 11.4583 9.99935 11.4583Z" fill="#1C1C1E"/>
<path d="M13.3327 14.7917H6.66602C6.32435 14.7917 6.04102 14.5084 6.04102 14.1667C6.04102 13.8251 6.32435 13.5417 6.66602 13.5417H13.3327C13.6743 13.5417 13.9577 13.8251 13.9577 14.1667C13.9577 14.5084 13.6743 14.7917 13.3327 14.7917Z" fill="#1C1C1E"/>
</svg>
