<svg width="16" height="17" viewBox="0 0 16 17" fill="none" xmlns="http://www.w3.org/2000/svg">
<g id="vuesax/outline/eye-slash">
<g id="eye-slash">
<path id="Vector" d="M6.31333 10.6867C6.18667 10.6867 6.06 10.64 5.96 10.54C5.41333 9.99334 5.11333 9.26668 5.11333 8.50001C5.11333 6.90668 6.40667 5.61334 8 5.61334C8.76667 5.61334 9.49334 5.91334 10.04 6.46001C10.1333 6.55334 10.1867 6.68001 10.1867 6.81334C10.1867 6.94668 10.1333 7.07334 10.04 7.16668L6.66667 10.54C6.56667 10.64 6.44 10.6867 6.31333 10.6867ZM8 6.61334C6.96 6.61334 6.11333 7.46001 6.11333 8.50001C6.11333 8.83334 6.2 9.15334 6.36 9.43334L8.93333 6.86001C8.65333 6.70001 8.33333 6.61334 8 6.61334Z" fill="#AFAFB5"/>
<path id="Vector_2" d="M3.73334 12.84C3.62 12.84 3.5 12.8 3.40667 12.72C2.69334 12.1134 2.05334 11.3667 1.50667 10.5C0.800003 9.40003 0.800003 7.60669 1.50667 6.50003C3.13334 3.95336 5.5 2.48669 8 2.48669C9.46667 2.48669 10.9133 2.99336 12.18 3.94669C12.4 4.11336 12.4467 4.42669 12.28 4.64669C12.1133 4.86669 11.8 4.91336 11.58 4.74669C10.4867 3.92003 9.24667 3.48669 8 3.48669C5.84667 3.48669 3.78667 4.78003 2.34667 7.04003C1.84667 7.82003 1.84667 9.18003 2.34667 9.96003C2.84667 10.74 3.42 11.4134 4.05334 11.96C4.26 12.14 4.28667 12.4534 4.10667 12.6667C4.01334 12.78 3.87334 12.84 3.73334 12.84Z" fill="#AFAFB5"/>
<path id="Vector_3" d="M8 14.5134C7.11333 14.5134 6.24667 14.3334 5.41333 13.98C5.16 13.8734 5.04 13.58 5.14667 13.3267C5.25333 13.0734 5.54667 12.9534 5.8 13.06C6.50666 13.36 7.24667 13.5134 7.99333 13.5134C10.1467 13.5134 12.2067 12.22 13.6467 9.96002C14.1467 9.18002 14.1467 7.82002 13.6467 7.04002C13.44 6.71335 13.2133 6.40002 12.9733 6.10669C12.8 5.89335 12.8333 5.58002 13.0467 5.40002C13.26 5.22669 13.5733 5.25335 13.7533 5.47335C14.0133 5.79335 14.2667 6.14002 14.4933 6.50002C15.2 7.60002 15.2 9.39335 14.4933 10.5C12.8667 13.0467 10.5 14.5134 8 14.5134Z" fill="#AFAFB5"/>
<path id="Vector_4" d="M8.46 11.3467C8.22667 11.3467 8.01334 11.18 7.96667 10.94C7.91334 10.6667 8.09334 10.4067 8.36667 10.36C9.1 10.2267 9.71334 9.61332 9.84667 8.87999C9.9 8.60665 10.16 8.43332 10.4333 8.47999C10.7067 8.53332 10.8867 8.79332 10.8333 9.06665C10.62 10.22 9.7 11.1333 8.55334 11.3467C8.52 11.34 8.49334 11.3467 8.46 11.3467Z" fill="#AFAFB5"/>
<path id="Vector_5" d="M1.33333 15.6667C1.20667 15.6667 1.08 15.62 0.979999 15.52C0.786666 15.3267 0.786666 15.0067 0.979999 14.8134L5.96 9.83335C6.15333 9.64002 6.47333 9.64002 6.66667 9.83335C6.86 10.0267 6.86 10.3467 6.66667 10.54L1.68667 15.52C1.58667 15.62 1.46 15.6667 1.33333 15.6667Z" fill="#AFAFB5"/>
<path id="Vector_6" d="M9.68666 7.31336C9.56 7.31336 9.43333 7.26669 9.33333 7.16669C9.14 6.97336 9.14 6.65336 9.33333 6.46002L14.3133 1.48002C14.5067 1.28669 14.8267 1.28669 15.02 1.48002C15.2133 1.67336 15.2133 1.99336 15.02 2.18669L10.04 7.16669C9.94 7.26669 9.81333 7.31336 9.68666 7.31336Z" fill="#AFAFB5"/>
</g>
</g>
</svg>
