<svg width="16" height="16" viewBox="0 0 16 16" fill="none" xmlns="http://www.w3.org/2000/svg">
<path d="M7.99995 10.8866C6.40661 10.8866 5.11328 9.59328 5.11328 7.99995C5.11328 6.40661 6.40661 5.11328 7.99995 5.11328C9.59328 5.11328 10.8866 6.40661 10.8866 7.99995C10.8866 9.59328 9.59328 10.8866 7.99995 10.8866ZM7.99995 6.11328C6.95995 6.11328 6.11328 6.95995 6.11328 7.99995C6.11328 9.03995 6.95995 9.88661 7.99995 9.88661C9.03995 9.88661 9.88661 9.03995 9.88661 7.99995C9.88661 6.95995 9.03995 6.11328 7.99995 6.11328Z" fill="#AFAFB5"/>
<path d="M7.99973 14.0149C5.49306 14.0149 3.12639 12.5483 1.49973 10.0016C0.79306 8.90162 0.79306 7.10828 1.49973 6.00161C3.13306 3.45495 5.49973 1.98828 7.99973 1.98828C10.4997 1.98828 12.8664 3.45495 14.4931 6.00161C15.1997 7.10161 15.1997 8.89495 14.4931 10.0016C12.8664 12.5483 10.4997 14.0149 7.99973 14.0149ZM7.99973 2.98828C5.84639 2.98828 3.78639 4.28161 2.34639 6.54161C1.84639 7.32161 1.84639 8.68161 2.34639 9.46161C3.78639 11.7216 5.84639 13.0149 7.99973 13.0149C10.1531 13.0149 12.2131 11.7216 13.6531 9.46161C14.1531 8.68161 14.1531 7.32161 13.6531 6.54161C12.2131 4.28161 10.1531 2.98828 7.99973 2.98828Z" fill="#AFAFB5"/>
</svg>
