<svg width="20" height="20" viewBox="0 0 20 20" fill="none" xmlns="http://www.w3.org/2000/svg">
<path d="M10 15.625C9.65833 15.625 9.375 15.3417 9.375 15V12.5C9.375 12.1583 9.65833 11.875 10 11.875C10.3417 11.875 10.625 12.1583 10.625 12.5V15C10.625 15.3417 10.3417 15.625 10 15.625Z" fill="#1C1C1E"/>
<path d="M14.6661 18.8H5.33281C3.81615 18.8 2.43281 17.6333 2.18281 16.1417L1.07448 9.50001C0.891145 8.46668 1.39948 7.14168 2.22448 6.48335L7.99948 1.85835C9.11615 0.958348 10.8745 0.966681 11.9995 1.86668L17.7745 6.48335C18.5911 7.14168 19.0911 8.46668 18.9245 9.50001L17.8161 16.1333C17.5661 17.6083 16.1495 18.8 14.6661 18.8ZM9.99115 2.44168C9.54948 2.44168 9.10781 2.57501 8.78281 2.83335L3.00781 7.46668C2.54115 7.84168 2.20781 8.70835 2.30781 9.30001L3.41615 15.9333C3.56615 16.8083 4.44115 17.55 5.33281 17.55H14.6661C15.5578 17.55 16.4328 16.8083 16.5828 15.925L17.6911 9.29168C17.7828 8.70835 17.4495 7.82501 16.9911 7.45835L11.2161 2.84168C10.8828 2.57501 10.4328 2.44168 9.99115 2.44168Z" fill="#1C1C1E"/>
</svg>
