<svg width="20" height="20" viewBox="0 0 20 20" fill="none" xmlns="http://www.w3.org/2000/svg">
<path d="M7.28359 18.5417H12.7169C16.8086 18.5417 18.5586 16.7917 18.5586 12.7001V12.5917C18.5586 8.89173 17.1003 7.1084 13.8336 6.80006C13.5003 6.77506 13.1836 7.02506 13.1503 7.36673C13.1169 7.7084 13.3669 8.01673 13.7169 8.05006C16.3336 8.29173 17.3086 9.52506 17.3086 12.6001V12.7084C17.3086 16.1001 16.1086 17.3001 12.7169 17.3001H7.28359C3.89193 17.3001 2.69193 16.1001 2.69193 12.7084V12.6001C2.69193 9.5084 3.68359 8.27506 6.35026 8.05006C6.69193 8.01673 6.95026 7.71673 6.91693 7.37506C6.88359 7.0334 6.59193 6.77506 6.24193 6.8084C2.92526 7.09173 1.44193 8.8834 1.44193 12.6084V12.7167C1.44193 16.7917 3.19193 18.5417 7.28359 18.5417Z" fill="#292D32"/>
<path d="M10 13.0251C10.3417 13.0251 10.625 12.7417 10.625 12.4001V1.66675C10.625 1.32508 10.3417 1.04175 10 1.04175C9.65833 1.04175 9.375 1.32508 9.375 1.66675V12.4001C9.375 12.7501 9.65833 13.0251 10 13.0251Z" fill="#292D32"/>
<path d="M9.99948 13.9583C10.1578 13.9583 10.3161 13.9 10.4411 13.775L13.2328 10.9833C13.4745 10.7416 13.4745 10.3416 13.2328 10.1C12.9911 9.85828 12.5911 9.85828 12.3495 10.1L9.99948 12.45L7.64948 10.1C7.40781 9.85828 7.00781 9.85828 6.76615 10.1C6.52448 10.3416 6.52448 10.7416 6.76615 10.9833L9.55781 13.775C9.68281 13.9 9.84115 13.9583 9.99948 13.9583Z" fill="#292D32"/>
</svg>
