<svg width="20" height="20" viewBox="0 0 20 20" fill="none" xmlns="http://www.w3.org/2000/svg">
<path d="M13.1741 16.8166C12.9574 16.8166 12.7324 16.8083 12.4907 16.7833C12.0574 16.7499 11.5658 16.6666 11.0574 16.5416L9.65742 16.2083C5.81575 15.2999 4.55742 13.2666 5.45742 9.43326L6.27408 5.9416C6.45742 5.14993 6.67408 4.50826 6.94075 3.97493C8.37408 1.0166 11.1157 1.28326 13.0657 1.7416L14.4574 2.0666C16.4074 2.52493 17.6407 3.24993 18.3324 4.35826C19.0157 5.4666 19.1241 6.8916 18.6657 8.8416L17.8491 12.3249C17.1324 15.3749 15.6407 16.8166 13.1741 16.8166ZM10.9324 2.70826C9.54075 2.70826 8.65742 3.28326 8.06575 4.5166C7.84908 4.9666 7.65742 5.52493 7.49075 6.22493L6.67408 9.7166C5.93242 12.8666 6.79075 14.2416 9.94075 14.9916L11.3407 15.3249C11.7907 15.4333 12.2157 15.4999 12.5991 15.5333C14.8657 15.7583 15.9908 14.7666 16.6241 12.0416L17.4407 8.55827C17.8157 6.94993 17.7657 5.82493 17.2657 5.0166C16.7657 4.20826 15.7824 3.65826 14.1657 3.28326L12.7741 2.95826C12.0824 2.7916 11.4657 2.70826 10.9324 2.70826Z" fill="#1C1C1E"/>
<path d="M6.94155 18.5416C4.79988 18.5416 3.43321 17.2583 2.55821 14.55L1.49155 11.2583C0.308214 7.59165 1.36655 5.52498 5.01655 4.34165L6.33321 3.91665C6.76655 3.78331 7.09155 3.69165 7.38321 3.64165C7.62488 3.59165 7.85821 3.68331 7.99988 3.87498C8.14155 4.06665 8.16655 4.31665 8.06655 4.53331C7.84988 4.97498 7.65821 5.53331 7.49988 6.23331L6.68321 9.72498C5.94155 12.875 6.79988 14.25 9.94988 15L11.3499 15.3333C11.7999 15.4416 12.2249 15.5083 12.6082 15.5416C12.8749 15.5666 13.0915 15.75 13.1665 16.0083C13.2332 16.2666 13.1332 16.5333 12.9165 16.6833C12.3665 17.0583 11.6749 17.375 10.7999 17.6583L9.48321 18.0916C8.52488 18.3916 7.69155 18.5416 6.94155 18.5416ZM6.48321 5.18331L5.40821 5.53331C2.43321 6.49165 1.72488 7.89165 2.68321 10.875L3.74988 14.1666C4.71655 17.1416 6.11655 17.8583 9.09155 16.9L10.4082 16.4666C10.4582 16.45 10.4999 16.4333 10.5499 16.4166L9.66655 16.2083C5.82488 15.3 4.56655 13.2666 5.46655 9.43331L6.28321 5.94165C6.34155 5.67498 6.40821 5.41665 6.48321 5.18331Z" fill="#1C1C1E"/>
<path d="M14.5751 8.75839C14.5251 8.75839 14.4751 8.75006 14.4168 8.74173L10.3751 7.71673C10.0418 7.63339 9.84181 7.29173 9.92514 6.95839C10.0085 6.62506 10.3501 6.42506 10.6835 6.50839L14.7251 7.53339C15.0585 7.61673 15.2585 7.95839 15.1751 8.29173C15.1085 8.56673 14.8501 8.75839 14.5751 8.75839Z" fill="#1C1C1E"/>
<path d="M12.1343 11.5749C12.0843 11.5749 12.0343 11.5666 11.9759 11.5582L9.55092 10.9416C9.21759 10.8582 9.01759 10.5166 9.10092 10.1832C9.18425 9.84991 9.52592 9.64991 9.85925 9.73325L12.2843 10.3499C12.6176 10.4332 12.8176 10.7749 12.7343 11.1082C12.6676 11.3916 12.4176 11.5749 12.1343 11.5749Z" fill="#1C1C1E"/>
</svg>
